<svg width="50" height="50" viewBox="0 0 50 50" fill="none" xmlns="http://www.w3.org/2000/svg">
<g id="Icon">
<path id="Vector" d="M14.9902 15.918H33.8379C34.0007 15.918 34.139 15.861 34.2529 15.7471C34.3669 15.6331 34.4238 15.4948 34.4238 15.332C34.4238 15.1693 34.3669 15.0309 34.2529 14.917C34.139 14.8031 34.0007 14.7461 33.8379 14.7461H14.9902C14.8275 14.7461 14.6891 14.8031 14.5752 14.917C14.4613 15.0309 14.4043 15.1693 14.4043 15.332C14.4043 15.4948 14.4613 15.6331 14.5752 15.7471C14.6891 15.861 14.8275 15.918 14.9902 15.918ZM14.9902 21.9238H33.8379C34.0007 21.9238 34.139 21.8669 34.2529 21.7529C34.3669 21.639 34.4238 21.5007 34.4238 21.3379C34.4238 21.2077 34.3669 21.0775 34.2529 20.9473C34.139 20.8171 34.0007 20.752 33.8379 20.752H14.9902C14.8275 20.752 14.6891 20.8171 14.5752 20.9473C14.4613 21.0775 14.4043 21.2077 14.4043 21.3379C14.4043 21.5007 14.4613 21.639 14.5752 21.7529C14.6891 21.8669 14.8275 21.9238 14.9902 21.9238ZM14.9902 26.9531H33.8379C34.0007 26.9531 34.139 26.8962 34.2529 26.7822C34.3669 26.6683 34.4238 26.5299 34.4238 26.3672C34.4238 26.2044 34.3669 26.0661 34.2529 25.9521C34.139 25.8382 34.0007 25.7812 33.8379 25.7812H14.9902C14.8275 25.7812 14.6891 25.8382 14.5752 25.9521C14.4613 26.0661 14.4043 26.2044 14.4043 26.3672C14.4043 26.5299 14.4613 26.6683 14.5752 26.7822C14.6891 26.8962 14.8275 26.9531 14.9902 26.9531ZM48.0469 35.0586C48.0469 34.2122 47.7458 33.488 47.1436 32.8857C46.5413 32.2835 45.8171 31.9824 44.9707 31.9824C44.1243 31.9824 43.3919 32.2835 42.7734 32.8857C42.1549 33.488 41.8457 34.2122 41.8457 35.0586C41.8457 35.8073 42.0898 36.4665 42.5781 37.0361C43.0664 37.6058 43.6523 37.9557 44.3359 38.0859H44.3848V43.7988H40.0391V9.32617C40.0391 9.16341 39.9821 9.02507 39.8682 8.91113C39.7542 8.7972 39.6159 8.74023 39.4531 8.74023H34.0332V2.49023C34.0332 2.32747 33.9762 2.18913 33.8623 2.0752C33.7484 1.96126 33.61 1.9043 33.4473 1.9043H15.4297C15.2669 1.9043 15.1286 1.96126 15.0146 2.0752C14.9007 2.18913 14.8438 2.32747 14.8438 2.49023V8.74023H9.42383C9.26107 8.74023 9.12272 8.7972 9.00879 8.91113C8.89486 9.02507 8.83789 9.16341 8.83789 9.32617V25L0.341797 29.1504C0.244141 29.1829 0.16276 29.248 0.0976562 29.3457C0.0325521 29.4434 0 29.5573 0 29.6875V37.9395C0 38.3952 0.0651042 38.8753 0.195312 39.3799C0.325521 39.8844 0.504557 40.3809 0.732422 40.8691C1.02539 41.5202 1.3916 42.1143 1.83105 42.6514C2.27051 43.1885 2.7181 43.6198 3.17383 43.9453L9.08203 47.998C9.11458 48.0306 9.16341 48.055 9.22852 48.0713C9.29362 48.0876 9.35872 48.0957 9.42383 48.0957C9.48893 48.0957 9.5459 48.0876 9.59473 48.0713C9.64355 48.055 9.70052 48.0306 9.76562 47.998H9.7168L14.1113 44.9707H47.4609C47.6237 44.9707 47.762 44.9137 47.876 44.7998C47.9899 44.6859 48.0469 44.5475 48.0469 44.3848C48.0469 44.222 47.9899 44.0837 47.876 43.9697C47.762 43.8558 47.6237 43.7988 47.4609 43.7988H45.5566V38.0859C46.2728 37.9557 46.8669 37.6058 47.3389 37.0361C47.8109 36.4665 48.0469 35.8073 48.0469 35.0586ZM16.0156 3.07617H32.8613V8.74023H16.0156V3.07617ZM38.8672 9.91211V43.7988H33.0078V41.0156C33.0078 40.8529 32.9508 40.7145 32.8369 40.6006C32.723 40.4867 32.5846 40.4297 32.4219 40.4297H29.541V31.543C29.541 31.3802 29.4759 31.2419 29.3457 31.1279C29.2155 31.014 29.0853 30.957 28.9551 30.957H19.9219C19.7591 30.957 19.6208 31.014 19.5068 31.1279C19.3929 31.2419 19.3359 31.3802 19.3359 31.543V40.4297H18.3105C18.4733 40.0716 18.5954 39.681 18.6768 39.2578C18.7581 38.8346 18.7988 38.3952 18.7988 37.9395V29.6875C18.7988 29.5573 18.7744 29.4515 18.7256 29.3701C18.6768 29.2887 18.6035 29.2155 18.5059 29.1504L10.0098 25V9.91211H38.8672ZM17.7246 41.6016H31.8359V43.7988H15.8203C16.2109 43.5384 16.5609 43.2129 16.8701 42.8223C17.1794 42.4316 17.4642 42.0247 17.7246 41.6016ZM25 40.3809V32.1289H28.3691V40.4297H20.5078V32.1289H23.8281V40.3809H25ZM9.42383 46.7773L3.85742 43.0176C3.4668 42.7246 3.09245 42.3503 2.73438 41.8945C2.3763 41.4388 2.06706 40.9342 1.80664 40.3809C1.57878 39.9577 1.41602 39.5345 1.31836 39.1113C1.2207 38.6882 1.17188 38.2975 1.17188 37.9395V30.0293L9.42383 25.9766L17.627 30.0293V37.9395C17.627 38.8184 17.3665 39.7542 16.8457 40.7471C16.3249 41.7399 15.6901 42.4967 14.9414 43.0176L9.42383 46.7773ZM43.0176 35.0586C43.0176 34.5378 43.2048 34.0902 43.5791 33.7158C43.9534 33.3415 44.4173 33.1543 44.9707 33.1543C45.4915 33.1543 45.9391 33.3415 46.3135 33.7158C46.6878 34.0902 46.875 34.5378 46.875 35.0586C46.875 35.612 46.6878 36.0758 46.3135 36.4502C45.9391 36.8245 45.4915 37.0117 44.9707 37.0117C44.4173 37.0117 43.9534 36.8245 43.5791 36.4502C43.2048 36.0758 43.0176 35.612 43.0176 35.0586ZM12.7441 33.6426L8.34961 37.9395L6.10352 35.7422C6.03841 35.6771 5.97331 35.6364 5.9082 35.6201C5.8431 35.6038 5.76172 35.5957 5.66406 35.5957C5.5013 35.5957 5.36296 35.6527 5.24902 35.7666C5.13509 35.8805 5.07812 36.0189 5.07812 36.1816C5.07812 36.2467 5.0944 36.32 5.12695 36.4014C5.15951 36.4827 5.20833 36.5397 5.27344 36.5723L7.91016 39.1602C7.97526 39.2253 8.04036 39.2741 8.10547 39.3066C8.17057 39.3392 8.25195 39.3555 8.34961 39.3555C8.41471 39.3555 8.48796 39.3392 8.56934 39.3066C8.65072 39.2741 8.70768 39.2253 8.74023 39.1602L13.5742 34.4727C13.6068 34.4401 13.6393 34.3831 13.6719 34.3018C13.7044 34.2204 13.7207 34.1471 13.7207 34.082C13.7207 33.9193 13.6637 33.7809 13.5498 33.667C13.4359 33.5531 13.2975 33.4961 13.1348 33.4961C13.0697 33.4961 12.9964 33.5124 12.915 33.5449C12.8337 33.5775 12.7767 33.61 12.7441 33.6426Z" fill="#187723"/>
</g>
</svg>
