<svg width="15" height="15" viewBox="0 0 15 15" fill="none" xmlns="http://www.w3.org/2000/svg">
<g id="Icon" clip-path="url(#clip0_23_44719)">
<path id="Vector" d="M13.8574 8.48145V7.25098C13.8574 6.82129 13.8135 6.40137 13.7256 5.99121C13.6475 5.59082 13.5303 5.2002 13.374 4.81934C13.2178 4.43848 13.0225 4.07227 12.7881 3.7207C12.5537 3.37891 12.29 3.05664 11.9971 2.75391C11.6943 2.45117 11.3721 2.1875 11.0303 1.96289C10.6787 1.72852 10.3125 1.5332 9.93164 1.37695C9.55078 1.2207 9.15527 1.09863 8.74512 1.01074C8.33496 0.932617 7.91992 0.893555 7.5 0.893555C7.08008 0.893555 6.66504 0.932617 6.25488 1.01074C5.84473 1.09863 5.44922 1.2207 5.06836 1.37695C4.6875 1.5332 4.32129 1.72852 3.96973 1.96289C3.62793 2.1875 3.30566 2.45117 3.00293 2.75391C2.70996 3.05664 2.44629 3.37891 2.21191 3.7207C1.97754 4.07227 1.78223 4.43848 1.62598 4.81934C1.46973 5.2002 1.35254 5.59082 1.27441 5.99121C1.18652 6.40137 1.14258 6.82129 1.14258 7.25098V8.48145C0.830078 8.50098 0.561523 8.62549 0.336914 8.85498C0.112305 9.08447 0 9.36035 0 9.68262V11.5869C0 11.9287 0.119629 12.2168 0.358887 12.4512C0.598145 12.6855 0.883789 12.8027 1.21582 12.8027H1.91895C1.93848 13.1641 2.08252 13.4717 2.35107 13.7256C2.61963 13.9795 2.93945 14.1064 3.31055 14.1064C3.69141 14.1064 4.01855 13.9697 4.29199 13.6963C4.56543 13.4229 4.70215 13.0957 4.70215 12.7148V8.56934C4.70215 8.18848 4.56543 7.86133 4.29199 7.58789C4.01855 7.31445 3.69141 7.17773 3.31055 7.17773C3.24219 7.17773 3.17383 7.18262 3.10547 7.19238C3.03711 7.20215 2.96875 7.2168 2.90039 7.23633C2.90039 6.60156 3.02246 6.00586 3.2666 5.44922C3.51074 4.89258 3.84033 4.40674 4.25537 3.9917C4.67041 3.57666 5.15625 3.25195 5.71289 3.01758C6.26953 2.77344 6.86523 2.65137 7.5 2.65137C8.13477 2.65137 8.73047 2.77344 9.28711 3.01758C9.84375 3.25195 10.3296 3.57666 10.7446 3.9917C11.1597 4.40674 11.4893 4.89258 11.7334 5.44922C11.9775 6.00586 12.0996 6.60156 12.0996 7.23633C12.0312 7.2168 11.9629 7.20215 11.8945 7.19238C11.8262 7.18262 11.7578 7.17773 11.6895 7.17773C11.3086 7.17773 10.9814 7.31445 10.708 7.58789C10.4346 7.86133 10.2979 8.18848 10.2979 8.56934V12.7148C10.2979 13.0957 10.4346 13.4229 10.708 13.6963C10.9814 13.9697 11.3086 14.1064 11.6895 14.1064C12.0605 14.1064 12.3804 13.9795 12.6489 13.7256C12.9175 13.4717 13.0615 13.1641 13.0811 12.8027H13.7842C14.1162 12.8027 14.4019 12.6855 14.6411 12.4512C14.8804 12.2168 15 11.9287 15 11.5869V9.68262C15 9.36035 14.8877 9.08447 14.6631 8.85498C14.4385 8.62549 14.1699 8.50098 13.8574 8.48145Z" fill="#187723"/>
</g>
<defs>
<clipPath id="clip0_23_44719">
<rect width="15" height="15" fill="white" transform="matrix(1 0 0 -1 0 15)"/>
</clipPath>
</defs>
</svg>
