<svg width="16" height="17" viewBox="0 0 16 17" fill="none" xmlns="http://www.w3.org/2000/svg">
<g id="Icon" clip-path="url(#clip0_23_44716)">
<path id="Vector" d="M9.74687 0.889999C9.74687 0.889999 9.46823 1.12437 8.91094 1.59312C8.35365 2.06187 7.72083 2.42646 7.0125 2.68687C4.37708 3.63479 2.575 4.75458 1.60625 6.04625C0.647917 7.33792 0.121875 8.56708 0.028125 9.73375C-0.065625 10.9004 0.075 11.8952 0.45 12.7181C0.825 13.5306 1.02813 13.9421 1.05938 13.9525C1.05938 13.9525 1.19219 13.7572 1.45781 13.3666C1.72344 12.9759 2.05417 12.6296 2.45 12.3275C3.72083 11.4004 4.75208 10.4629 5.54375 9.515C6.33542 8.55667 6.9526 7.69469 7.39531 6.92906C7.83802 6.16344 8.14271 5.53583 8.30937 5.04625C8.46562 4.56708 8.54375 4.3275 8.54375 4.3275C8.54375 4.3275 8.46042 4.60875 8.29375 5.17125C8.12708 5.74417 7.83281 6.4551 7.41094 7.30406C6.98906 8.15302 6.41354 9.06187 5.68437 10.0306C4.95521 10.9994 4.02812 11.8848 2.90313 12.6869C2.65313 12.864 2.42396 13.1035 2.21563 13.4056C2.00729 13.6973 1.81979 14.028 1.65313 14.3978C1.48646 14.7676 1.34583 15.166 1.23125 15.5931C1.11667 16.0202 1.02292 16.4525 0.95 16.89C0.95 16.89 1.08021 16.8405 1.34063 16.7416C1.60104 16.6426 1.80417 16.5723 1.95 16.5306C2.0125 16.1452 2.10625 15.7676 2.23125 15.3978C2.35625 15.028 2.52813 14.6817 2.74688 14.3587C4.31979 14.5462 5.64271 14.416 6.71562 13.9681C7.77812 13.5202 8.64531 12.9473 9.31719 12.2494C9.98906 11.5515 10.4812 10.8223 10.7937 10.0619C11.1167 9.30146 11.3094 8.7025 11.3719 8.265C11.5281 7.21292 11.5333 6.23896 11.3875 5.34312C11.2417 4.44729 11.0464 3.66864 10.8016 3.00719C10.5568 2.34573 10.3198 1.8275 10.0906 1.4525C9.86146 1.0775 9.74687 0.889999 9.74687 0.889999Z" fill="#187723"/>
</g>
<defs>
<clipPath id="clip0_23_44716">
<rect width="16" height="16" fill="white" transform="matrix(1 0 0 -1 0 16.89)"/>
</clipPath>
</defs>
</svg>
