<svg width="40" height="40" viewBox="0 0 40 40" fill="none" xmlns="http://www.w3.org/2000/svg">
<g id="Icon" clip-path="url(#clip0_23_44736)">
<path id="Vector" d="M39.5703 9.76562L36.4062 8.67188C36.25 8.59375 36.0938 8.59375 35.9375 8.67188C35.7812 8.75 35.6641 8.88021 35.5859 9.0625C35.5339 9.21875 35.5469 9.375 35.625 9.53125C35.7031 9.6875 35.8203 9.80469 35.9766 9.88281L38.7109 10.8203V38.4375L30.3125 35.4688V22.6172C30.3125 22.4349 30.2539 22.2852 30.1367 22.168C30.0195 22.0508 29.8698 21.9922 29.6875 21.9922C29.5052 21.9922 29.349 22.0508 29.2188 22.168C29.0885 22.2852 29.0234 22.4349 29.0234 22.6172V35.4688L20.6641 38.4375V22.6172C20.6641 22.4349 20.599 22.2852 20.4688 22.168C20.3385 22.0508 20.1823 21.9922 20 21.9922C19.8177 21.9922 19.6615 22.0508 19.5312 22.168C19.401 22.2852 19.3359 22.4349 19.3359 22.6172V38.4375L10.9766 35.4688V12.9688C10.9766 12.7865 10.9115 12.6302 10.7812 12.5C10.651 12.3698 10.4948 12.3047 10.3125 12.3047C10.1302 12.3047 9.98047 12.3698 9.86328 12.5C9.74609 12.6302 9.6875 12.7865 9.6875 12.9688V35.4688L1.28906 38.4375V10.8203L9.6875 7.85156V10.3906C9.6875 10.5729 9.74609 10.7227 9.86328 10.8398C9.98047 10.957 10.1302 11.0156 10.3125 11.0156C10.4948 11.0156 10.651 10.957 10.7812 10.8398C10.9115 10.7227 10.9766 10.5729 10.9766 10.3906V7.85156L13.3594 8.71094C13.5417 8.76302 13.7109 8.75 13.8672 8.67188C14.0234 8.59375 14.1276 8.47656 14.1797 8.32031C14.2578 8.16406 14.2578 8.0013 14.1797 7.83203C14.1016 7.66276 13.9714 7.55208 13.7891 7.5L10.5469 6.32812C10.5208 6.32812 10.5013 6.32812 10.4883 6.32812C10.4753 6.32812 10.4557 6.32812 10.4297 6.32812C10.4297 6.30208 10.4297 6.28906 10.4297 6.28906C10.4036 6.28906 10.3841 6.28906 10.3711 6.28906C10.3581 6.28906 10.3385 6.28906 10.3125 6.28906C10.3125 6.28906 10.2995 6.28906 10.2734 6.28906C10.2474 6.28906 10.2344 6.28906 10.2344 6.28906C10.2344 6.28906 10.2279 6.28906 10.2148 6.28906C10.2018 6.28906 10.1953 6.30208 10.1953 6.32812C10.1953 6.32812 10.1823 6.32812 10.1562 6.32812C10.1302 6.32812 10.1172 6.32812 10.1172 6.32812L0.429688 9.76562C0.299479 9.81771 0.195312 9.90234 0.117188 10.0195C0.0390625 10.1367 0 10.2604 0 10.3906V39.3359C0 39.4661 0.0260417 39.5768 0.078125 39.668C0.130208 39.7591 0.195312 39.8307 0.273438 39.8828C0.351562 39.9349 0.442708 39.9674 0.546875 39.9805C0.651042 39.9935 0.755208 39.987 0.859375 39.9609L10.3125 36.6016L19.7656 39.9609C19.7917 39.9609 19.8047 39.9609 19.8047 39.9609C19.8047 39.9609 19.8112 39.9674 19.8242 39.9805C19.8372 39.9935 19.8568 40 19.8828 40C19.9089 40 19.9284 40 19.9414 40C19.9544 40 19.974 40 20 40C20.026 40 20.0456 40 20.0586 40C20.0716 40 20.0911 40 20.1172 40C20.1432 40 20.1628 39.9935 20.1758 39.9805C20.1888 39.9674 20.1953 39.9609 20.1953 39.9609C20.1953 39.9609 20.2018 39.9609 20.2148 39.9609C20.2279 39.9609 20.2344 39.9609 20.2344 39.9609L29.6875 36.6016L39.1406 39.9609C39.1667 39.987 39.1992 40 39.2383 40C39.2773 40 39.3099 40 39.3359 40C39.4141 40 39.4857 39.987 39.5508 39.9609C39.6159 39.9349 39.6745 39.9089 39.7266 39.8828C39.8047 39.8307 39.8698 39.7591 39.9219 39.668C39.974 39.5768 40 39.4661 40 39.3359V10.3906C40 10.2604 39.9609 10.1367 39.8828 10.0195C39.8047 9.90234 39.7005 9.81771 39.5703 9.76562ZM23.5938 23.3594C23.75 23.4896 23.9388 23.5938 24.1602 23.6719C24.3815 23.75 24.6094 23.7891 24.8438 23.7891C25.0781 23.7891 25.2995 23.75 25.5078 23.6719C25.7161 23.5938 25.9115 23.4896 26.0938 23.3594C26.1198 23.3333 26.5495 22.9427 27.3828 22.1875C28.2161 21.4323 29.1276 20.4167 30.1172 19.1406C31.4974 17.4219 32.526 15.7487 33.2031 14.1211C33.8802 12.4935 34.2188 10.9115 34.2188 9.375C34.2188 8.09896 33.9714 6.88802 33.4766 5.74219C32.9818 4.59636 32.3112 3.60026 31.4648 2.75391C30.6185 1.90755 29.6224 1.23698 28.4766 0.742188C27.3568 0.247395 26.1458 0 24.8438 0C23.5417 0 22.3177 0.247395 21.1719 0.742188C20.0521 1.23698 19.0625 1.90755 18.2031 2.75391C17.3438 3.60026 16.6797 4.59636 16.2109 5.74219C15.7161 6.88802 15.4688 8.09896 15.4688 9.375C15.4688 10.9115 15.8073 12.4935 16.4844 14.1211C17.1615 15.7487 18.1771 17.4219 19.5312 19.1406C20.5469 20.4167 21.4648 21.4323 22.2852 22.1875C23.1055 22.9427 23.5417 23.3333 23.5938 23.3594ZM24.8438 1.28906C25.9635 1.28906 27.0052 1.49739 27.9688 1.91406C28.9583 2.35677 29.8177 2.94271 30.5469 3.67188C31.276 4.40104 31.862 5.26042 32.3047 6.25C32.7214 7.21354 32.9297 8.25521 32.9297 9.375C32.9297 11.0417 32.5391 12.6432 31.7578 14.1797C30.9505 15.7422 30.0716 17.1289 29.1211 18.3398C28.1706 19.5508 27.2917 20.5208 26.4844 21.25C25.7031 21.9792 25.2995 22.3568 25.2734 22.3828C25.2214 22.4089 25.1562 22.4349 25.0781 22.4609C25 22.487 24.9219 22.5 24.8438 22.5C24.7656 22.5 24.6875 22.487 24.6094 22.4609C24.5312 22.4349 24.4661 22.4089 24.4141 22.3828C24.388 22.3568 23.9714 21.9792 23.1641 21.25C22.3828 20.5208 21.5104 19.5508 20.5469 18.3398C19.5833 17.1289 18.7109 15.7422 17.9297 14.1797C17.1484 12.6432 16.7578 11.0417 16.7578 9.375C16.7578 8.25521 16.9661 7.21354 17.3828 6.25C17.7995 5.26042 18.3789 4.40104 19.1211 3.67188C19.8633 2.94271 20.7161 2.35677 21.6797 1.91406C22.6693 1.49739 23.724 1.28906 24.8438 1.28906ZM29.8828 9.375C29.8828 7.99479 29.388 6.80989 28.3984 5.82031C27.4089 4.83073 26.224 4.33594 24.8438 4.33594C23.4375 4.33594 22.2461 4.83073 21.2695 5.82031C20.293 6.80989 19.8047 7.99479 19.8047 9.375C19.8047 10.7812 20.293 11.9727 21.2695 12.9492C22.2461 13.9258 23.4375 14.4141 24.8438 14.4141C26.224 14.4141 27.4089 13.9258 28.3984 12.9492C29.388 11.9727 29.8828 10.7812 29.8828 9.375ZM21.0938 9.375C21.0938 8.35938 21.4583 7.48047 22.1875 6.73828C22.9167 5.99609 23.8021 5.625 24.8438 5.625C25.8854 5.625 26.7708 5.99609 27.5 6.73828C28.2292 7.48047 28.5938 8.35938 28.5938 9.375C28.5938 10.4167 28.2292 11.3021 27.5 12.0312C26.7708 12.7604 25.8854 13.125 24.8438 13.125C23.8021 13.125 22.9167 12.7604 22.1875 12.0312C21.4583 11.3021 21.0938 10.4167 21.0938 9.375Z" fill="#187723"/>
</g>
<defs>
<clipPath id="clip0_23_44736">
<rect width="40" height="40" fill="white" transform="matrix(1 0 0 -1 0 40)"/>
</clipPath>
</defs>
</svg>
