<svg width="40" height="40" viewBox="0 0 40 40" fill="none" xmlns="http://www.w3.org/2000/svg">
<g id="Icon">
<path id="Vector" d="M37.1426 6.64093C37.8634 6.64093 38.4811 6.88546 38.9959 7.37452C39.5107 7.86358 39.7681 8.46847 39.7681 9.18919V30.6564C39.7681 31.3771 39.5107 31.982 38.9959 32.471C38.4811 32.9601 37.8634 33.2046 37.1426 33.2046H7.49013C6.76941 33.2046 6.15165 32.9601 5.63685 32.471C5.12205 31.982 4.86465 31.3771 4.86465 30.6564V26.8726C4.86465 26.4607 5.0577 26.2548 5.4438 26.2548C5.8299 26.2548 6.02295 26.4607 6.02295 26.8726V30.6564C6.02295 30.8108 6.04869 30.991 6.10017 31.1969L17.3743 19.9228L6.10017 8.64865C6.04869 8.85457 6.02295 9.03475 6.02295 9.18919V14.6718H7.79901C8.15937 14.6718 8.33955 14.8777 8.33955 15.2896C8.33955 15.7014 8.15937 15.9073 7.79901 15.9073H0.849206C0.437366 15.9073 0.231445 15.7014 0.231445 15.2896C0.231445 14.8777 0.437366 14.6718 0.849206 14.6718H4.86465V9.18919C4.86465 8.46847 5.12205 7.86358 5.63685 7.37452C6.15165 6.88546 6.76941 6.64093 7.49013 6.64093H37.1426ZM27.2585 19.9228L38.5326 31.1969C38.5841 30.991 38.6098 30.8108 38.6098 30.6564V9.18919C38.6098 9.03475 38.5841 8.85457 38.5326 8.64865L27.2585 19.9228ZM37.1426 7.72201H7.49013C7.28421 7.72201 7.10403 7.77349 6.94959 7.87645L19.8453 20.7722C20.5146 21.4414 21.3383 21.7761 22.3164 21.7761C23.2945 21.7761 24.1182 21.4414 24.7874 20.7722L37.6832 7.87645C37.5287 7.77349 37.3486 7.72201 37.1426 7.72201ZM7.49013 32.1236H37.2199C37.3743 32.1236 37.5287 32.0721 37.6832 31.9691L26.4863 20.7722L25.5596 21.6216C24.6845 22.4968 23.6034 22.9344 22.3164 22.9344C21.0294 22.9344 19.9483 22.4968 19.0731 21.6216L18.1465 20.7722L6.94959 31.9691C7.10403 32.0721 7.28421 32.1236 7.49013 32.1236ZM4.86465 17.6062C4.86465 17.1943 5.0577 16.9884 5.4438 16.9884C5.8299 16.9884 6.02295 17.1943 6.02295 17.6062V19.305H10.1156C10.476 19.305 10.6562 19.5109 10.6562 19.9228C10.6562 20.3346 10.476 20.5405 10.1156 20.5405H0.849206C0.437366 20.5405 0.231445 20.3346 0.231445 19.9228C0.231445 19.5109 0.437366 19.305 0.849206 19.305H4.86465V17.6062ZM7.79901 25.1737H0.849206C0.437366 25.1737 0.231445 24.9678 0.231445 24.556C0.231445 24.1441 0.437366 23.9382 0.849206 23.9382H4.86465V22.2394C4.86465 21.8275 5.0577 21.6216 5.4438 21.6216C5.8299 21.6216 6.02295 21.8275 6.02295 22.2394V23.9382H7.79901C8.15937 23.9382 8.33955 24.1441 8.33955 24.556C8.33955 24.9678 8.15937 25.1737 7.79901 25.1737Z" fill="#187723"/>
</g>
</svg>
