<svg width="41" height="40" viewBox="0 0 41 40" fill="none" xmlns="http://www.w3.org/2000/svg">
<g id="Icon" clip-path="url(#clip0_23_44740)">
<path id="Vector" d="M26.9048 23.6328C25.785 23.6328 24.7433 23.8411 23.7798 24.2578C22.8162 24.6745 21.9699 25.2409 21.2407 25.957C20.5116 26.6732 19.9386 27.526 19.522 28.5156C19.1053 29.4792 18.897 30.5078 18.897 31.6016C18.897 32.7214 19.1053 33.763 19.522 34.7266C19.9386 35.6901 20.5116 36.5365 21.2407 37.2656C21.9699 37.9948 22.8162 38.5677 23.7798 38.9844C24.7433 39.401 25.785 39.6094 26.9048 39.6094C27.9985 39.6094 29.0272 39.401 29.9907 38.9844C30.9803 38.5677 31.8332 37.9948 32.5493 37.2656C33.2655 36.5365 33.8319 35.6901 34.2485 34.7266C34.6652 33.763 34.8735 32.7214 34.8735 31.6016C34.8735 30.5078 34.6652 29.4792 34.2485 28.5156C33.8319 27.526 33.2655 26.6732 32.5493 25.957C31.8332 25.2409 30.9803 24.6745 29.9907 24.2578C29.0272 23.8411 27.9985 23.6328 26.9048 23.6328ZM26.9048 38.2812C25.0558 38.2812 23.4803 37.6302 22.1782 36.3281C20.8761 35.026 20.2251 33.4505 20.2251 31.6016C20.2251 29.7786 20.8761 28.2161 22.1782 26.9141C23.4803 25.612 25.0558 24.9609 26.9048 24.9609C28.7277 24.9609 30.2902 25.612 31.5923 26.9141C32.8944 28.2161 33.5454 29.7786 33.5454 31.6016C33.5454 33.4505 32.8944 35.026 31.5923 36.3281C30.2902 37.6302 28.7277 38.2812 26.9048 38.2812ZM30.8892 30.9375H27.5688V27.6172C27.5688 27.4349 27.5037 27.2786 27.3735 27.1484C27.2433 27.0182 27.0871 26.9531 26.9048 26.9531C26.7225 26.9531 26.5662 27.0182 26.436 27.1484C26.3058 27.2786 26.2407 27.4349 26.2407 27.6172V31.6016C26.2407 31.7839 26.3058 31.9401 26.436 32.0703C26.5662 32.2005 26.7225 32.2656 26.9048 32.2656H30.8892C31.0715 32.2656 31.2277 32.2005 31.3579 32.0703C31.4881 31.9401 31.5532 31.7839 31.5532 31.6016C31.5532 31.4193 31.4881 31.263 31.3579 31.1328C31.2277 31.0026 31.0715 30.9375 30.8892 30.9375ZM19.561 17.6172C19.0923 17.7474 18.6821 17.9948 18.3306 18.3594C17.979 18.724 17.7511 19.1406 17.647 19.6094H12.8813C12.6991 19.6094 12.5428 19.6745 12.4126 19.8047C12.2824 19.9349 12.2173 20.0911 12.2173 20.2734C12.2173 20.4557 12.2824 20.612 12.4126 20.7422C12.5428 20.8724 12.6991 20.9375 12.8813 20.9375H17.686C17.8423 21.5104 18.1548 21.9727 18.6235 22.3242C19.0923 22.6758 19.6261 22.8516 20.2251 22.8516C20.9543 22.8516 21.5793 22.5911 22.1001 22.0703C22.6209 21.5495 22.8813 20.9245 22.8813 20.1953C22.8813 19.5703 22.6925 19.0234 22.3149 18.5547C21.9373 18.0859 21.4621 17.7734 20.8892 17.6172V10.8594C20.8892 10.6771 20.8241 10.5208 20.6938 10.3906C20.5636 10.2604 20.4074 10.1953 20.2251 10.1953C20.0428 10.1953 19.8866 10.2604 19.7563 10.3906C19.6261 10.5208 19.561 10.6771 19.561 10.8594V17.6172ZM21.5532 20.1953C21.5532 20.5599 21.423 20.8724 21.1626 21.1328C20.9022 21.3932 20.5897 21.5234 20.2251 21.5234C19.8605 21.5234 19.548 21.3932 19.2876 21.1328C19.0272 20.8724 18.897 20.5599 18.897 20.1953C18.897 19.8307 19.0272 19.5182 19.2876 19.2578C19.548 18.9974 19.8605 18.8672 20.2251 18.8672C20.5897 18.8672 20.9022 18.9974 21.1626 19.2578C21.423 19.5182 21.5532 19.8307 21.5532 20.1953ZM20.2251 6.875C20.4074 6.875 20.5636 6.80989 20.6938 6.67969C20.8241 6.54948 20.8892 6.39323 20.8892 6.21094V5.54688C20.8892 5.36458 20.8241 5.20833 20.6938 5.07812C20.5636 4.94792 20.4074 4.88281 20.2251 4.88281C20.0428 4.88281 19.8866 4.94792 19.7563 5.07812C19.6261 5.20833 19.561 5.36458 19.561 5.54688V6.21094C19.561 6.39323 19.6261 6.54948 19.7563 6.67969C19.8866 6.80989 20.0428 6.875 20.2251 6.875ZM34.8735 19.5312H34.2095C34.0272 19.5312 33.8709 19.5964 33.7407 19.7266C33.6105 19.8568 33.5454 20.013 33.5454 20.1953C33.5454 20.3776 33.6105 20.5339 33.7407 20.6641C33.8709 20.7943 34.0272 20.8594 34.2095 20.8594H34.8735C35.0819 20.8594 35.2511 20.7943 35.3813 20.6641C35.5116 20.5339 35.5767 20.3776 35.5767 20.1953C35.5767 20.013 35.5116 19.8568 35.3813 19.7266C35.2511 19.5964 35.0819 19.5312 34.8735 19.5312ZM5.57666 19.5312C5.36833 19.5312 5.19906 19.5964 5.06885 19.7266C4.93864 19.8568 4.87354 20.013 4.87354 20.1953C4.87354 20.3776 4.93864 20.5339 5.06885 20.6641C5.19906 20.7943 5.36833 20.8594 5.57666 20.8594H6.24072C6.42301 20.8594 6.57926 20.7943 6.70947 20.6641C6.83968 20.5339 6.90479 20.3776 6.90479 20.1953C6.90479 20.013 6.83968 19.8568 6.70947 19.7266C6.57926 19.5964 6.42301 19.5312 6.24072 19.5312H5.57666ZM30.6157 10.7812L31.0845 10.3125C31.2147 10.1823 31.2798 10.026 31.2798 9.84375C31.2798 9.66146 31.2147 9.50521 31.0845 9.375C30.9543 9.24479 30.7915 9.17969 30.5962 9.17969C30.4009 9.17969 30.2381 9.24479 30.1079 9.375L29.6392 9.84375C29.509 9.97396 29.4438 10.1302 29.4438 10.3125C29.4438 10.4948 29.509 10.651 29.6392 10.7812C29.7173 10.8333 29.7954 10.8789 29.8735 10.918C29.9517 10.957 30.0298 10.9766 30.1079 10.9766C30.2121 10.9766 30.3032 10.957 30.3813 10.918C30.4595 10.8789 30.5376 10.8333 30.6157 10.7812ZM9.83447 29.6484L9.36572 30.1172C9.23551 30.2474 9.17041 30.4036 9.17041 30.5859C9.17041 30.7682 9.23551 30.9245 9.36572 31.0547C9.44385 31.1068 9.52197 31.1523 9.6001 31.1914C9.67822 31.2305 9.75635 31.25 9.83447 31.25C9.93864 31.25 10.0298 31.2305 10.1079 31.1914C10.186 31.1523 10.2642 31.1068 10.3423 31.0547L10.811 30.5859C10.9412 30.4557 11.0063 30.2995 11.0063 30.1172C11.0063 29.9349 10.9412 29.7786 10.811 29.6484C10.6808 29.5182 10.5181 29.4531 10.3228 29.4531C10.1274 29.4531 9.96468 29.5182 9.83447 29.6484ZM10.811 9.84375L10.3423 9.375C10.2121 9.24479 10.0493 9.17969 9.854 9.17969C9.65869 9.17969 9.49593 9.24479 9.36572 9.375C9.23551 9.50521 9.17041 9.66146 9.17041 9.84375C9.17041 10.026 9.23551 10.1823 9.36572 10.3125L9.83447 10.7812C9.9126 10.8333 9.99072 10.8789 10.0688 10.918C10.147 10.957 10.2381 10.9766 10.3423 10.9766C10.4204 10.9766 10.4985 10.957 10.5767 10.918C10.6548 10.8789 10.7329 10.8333 10.811 10.7812C10.9412 10.651 11.0063 10.4948 11.0063 10.3125C11.0063 10.1302 10.9412 9.97396 10.811 9.84375ZM20.2251 0.273438C17.4647 0.273438 14.8735 0.807293 12.4517 1.875C10.0298 2.91667 7.9139 4.34245 6.104 6.15234C4.29411 7.96224 2.85531 10.0781 1.7876 12.5C0.745931 14.9219 0.225098 17.513 0.225098 20.2734C0.225098 22.5911 0.602702 24.7917 1.35791 26.875C2.08708 28.9844 3.12223 30.8984 4.46338 32.6172C5.80452 34.3359 7.39958 35.8073 9.24854 37.0312C11.1235 38.2552 13.1678 39.1406 15.3813 39.6875C15.4334 39.7135 15.4725 39.7266 15.4985 39.7266C15.5246 39.7266 15.5506 39.7266 15.5767 39.7266C15.7069 39.7266 15.8371 39.681 15.9673 39.5898C16.0975 39.4987 16.1756 39.375 16.2017 39.2188C16.2537 39.0365 16.2342 38.8672 16.1431 38.7109C16.0519 38.5547 15.9152 38.4505 15.7329 38.3984C13.6496 37.8776 11.7355 37.0443 9.99072 35.8984C8.24593 34.7526 6.74854 33.3854 5.49854 31.7969C4.24854 30.2083 3.28499 28.4245 2.60791 26.4453C1.90479 24.4922 1.55322 22.4349 1.55322 20.2734C1.55322 17.6953 2.04801 15.2734 3.0376 13.0078C4.00114 10.7422 5.32926 8.76953 7.02197 7.08984C8.71468 5.41016 10.6938 4.07552 12.9595 3.08594C15.2251 2.09636 17.647 1.60156 20.2251 1.60156C22.8032 1.60156 25.2251 2.09636 27.4907 3.08594C29.7563 4.07552 31.7355 5.41016 33.4282 7.08984C35.1209 8.76953 36.4491 10.7422 37.4126 13.0078C38.4022 15.2734 38.897 17.6953 38.897 20.2734C38.897 21.4453 38.7928 22.5911 38.5845 23.7109C38.3761 24.8307 38.0636 25.9375 37.647 27.0312C37.5688 27.1875 37.5688 27.3503 37.647 27.5195C37.7251 27.6888 37.8423 27.8125 37.9985 27.8906C38.1808 27.9427 38.3566 27.9297 38.5259 27.8516C38.6951 27.7734 38.8188 27.6562 38.897 27.5C39.3397 26.3542 39.6717 25.1758 39.8931 23.9648C40.1144 22.7539 40.2251 21.5234 40.2251 20.2734C40.2251 17.513 39.7043 14.9219 38.6626 12.5C37.5949 10.0781 36.1561 7.96224 34.3462 6.15234C32.5363 4.34245 30.4204 2.91667 27.9985 1.875C25.5767 0.807293 22.9855 0.273438 20.2251 0.273438Z" fill="#187723"/>
</g>
<defs>
<clipPath id="clip0_23_44740">
<rect width="40" height="40" fill="white" transform="matrix(1 0 0 -1 0.225098 40)"/>
</clipPath>
</defs>
</svg>
