<svg width="50" height="50" viewBox="0 0 50 50" fill="none" xmlns="http://www.w3.org/2000/svg">
<g id="Icon">
<path id="Vector" d="M44.7266 2.44141H12.4023C11.0026 2.44141 9.80632 2.92969 8.81348 3.90625C7.82064 4.88281 7.32422 6.07096 7.32422 7.4707L7.08008 35.9375H0.78125C0.553385 35.9375 0.366211 36.0189 0.219727 36.1816C0.0732422 36.3444 0 36.5397 0 36.7676V40.6738C0 42.5293 0.634766 44.1162 1.9043 45.4346C3.17383 46.7529 4.70378 47.4447 6.49414 47.5098V47.5586H33.6914V47.5098C33.7891 47.5098 33.8786 47.5179 33.96 47.5342C34.0413 47.5505 34.1146 47.5586 34.1797 47.5586C36.0677 47.5586 37.679 46.8831 39.0137 45.5322C40.3483 44.1813 41.0156 42.5618 41.0156 40.6738V15.7715H49.2188C49.4466 15.7715 49.6338 15.6901 49.7803 15.5273C49.9268 15.3646 50 15.1693 50 14.9414V7.76367C50 6.29883 49.4873 5.04557 48.4619 4.00391C47.4365 2.96224 46.1914 2.44141 44.7266 2.44141ZM6.83594 45.9473C5.40365 45.9473 4.1748 45.4346 3.14941 44.4092C2.12402 43.3838 1.61133 42.1387 1.61133 40.6738V37.5488H27.3438V40.6738C27.3438 41.5853 27.5146 42.4642 27.8564 43.3105C28.1982 44.1569 28.6947 44.9056 29.3457 45.5566C29.4108 45.6217 29.4759 45.6787 29.541 45.7275C29.6061 45.7764 29.6712 45.8496 29.7363 45.9473H6.83594ZM39.3555 40.6738C39.3555 42.1387 38.8509 43.3838 37.8418 44.4092C36.8327 45.4346 35.612 45.9473 34.1797 45.9473C32.7148 45.9473 31.4779 45.4346 30.4688 44.4092C29.4596 43.3838 28.9551 42.1387 28.9551 40.6738V36.7676C28.9551 36.5397 28.8737 36.3444 28.7109 36.1816C28.5482 36.0189 28.3529 35.9375 28.125 35.9375H8.74023L8.93555 7.4707C8.93555 6.52669 9.26921 5.72103 9.93652 5.05371C10.6038 4.38639 11.4258 4.05273 12.4023 4.05273H40.918C40.4622 4.54102 40.0879 5.10254 39.7949 5.7373C39.502 6.37207 39.3555 7.04753 39.3555 7.76367V40.6738ZM48.3887 7.76367V14.1602H41.0156V7.76367C41.0156 6.75456 41.3737 5.88379 42.0898 5.15137C42.806 4.41895 43.6849 4.05273 44.7266 4.05273C45.7357 4.05273 46.5983 4.41895 47.3145 5.15137C48.0306 5.88379 48.3887 6.75456 48.3887 7.76367ZM18.9941 22.3633L23.1934 25.1953C23.3236 25.293 23.4701 25.3418 23.6328 25.3418C23.7956 25.3418 23.9421 25.293 24.0723 25.1953L28.2715 22.3633C28.9876 21.875 29.5817 21.1751 30.0537 20.2637C30.5257 19.3522 30.7617 18.457 30.7617 17.5781V11.7676C30.7617 11.6374 30.721 11.5072 30.6396 11.377C30.5583 11.2467 30.4525 11.1491 30.3223 11.084L23.9746 7.95898C23.877 7.89388 23.763 7.86133 23.6328 7.86133C23.5026 7.86133 23.3887 7.89388 23.291 7.95898L16.9434 11.0352C16.8132 11.1003 16.7074 11.2061 16.626 11.3525C16.5446 11.499 16.5039 11.6374 16.5039 11.7676V17.5781C16.5039 18.457 16.7399 19.3522 17.2119 20.2637C17.6839 21.1751 18.278 21.875 18.9941 22.3633ZM18.1152 12.3047L23.6328 9.57031L29.1504 12.3047V17.5781C29.1504 18.1641 28.9714 18.7988 28.6133 19.4824C28.2552 20.166 27.832 20.6868 27.3438 21.0449L23.6328 23.584L19.9219 21.0449C19.401 20.6868 18.9697 20.166 18.6279 19.4824C18.2861 18.7988 18.1152 18.1641 18.1152 17.5781V12.3047ZM22.2656 18.7988C22.3307 18.8639 22.4121 18.9209 22.5098 18.9697C22.6074 19.0186 22.7214 19.043 22.8516 19.043C22.9492 19.043 23.0469 19.0186 23.1445 18.9697C23.2422 18.9209 23.3236 18.8639 23.3887 18.7988L26.6113 15.5762C26.7741 15.4134 26.8555 15.2181 26.8555 14.9902C26.8555 14.7624 26.7741 14.5671 26.6113 14.4043C26.4811 14.2415 26.3021 14.1602 26.0742 14.1602C25.8464 14.1602 25.651 14.2415 25.4883 14.4043L22.8516 17.0898L21.7773 16.0156C21.6146 15.8529 21.4274 15.7715 21.2158 15.7715C21.0042 15.7715 20.8171 15.8529 20.6543 16.0156C20.4915 16.1458 20.4102 16.3249 20.4102 16.5527C20.4102 16.7806 20.4915 16.9759 20.6543 17.1387L22.2656 18.7988ZM33.6914 27.5391H14.2578C14.0299 27.5391 13.8428 27.6204 13.6963 27.7832C13.5498 27.946 13.4766 28.125 13.4766 28.3203C13.4766 28.5482 13.5498 28.7435 13.6963 28.9062C13.8428 29.069 14.0299 29.1504 14.2578 29.1504H33.6914C33.9193 29.1504 34.1146 29.069 34.2773 28.9062C34.4401 28.7435 34.5215 28.5482 34.5215 28.3203C34.5215 28.125 34.4401 27.946 34.2773 27.7832C34.1146 27.6204 33.9193 27.5391 33.6914 27.5391ZM33.6914 31.2988H14.2578C14.0299 31.2988 13.8428 31.3721 13.6963 31.5186C13.5498 31.665 13.4766 31.8522 13.4766 32.0801C13.4766 32.3079 13.5498 32.5033 13.6963 32.666C13.8428 32.8288 14.0299 32.9102 14.2578 32.9102H33.6914C33.9193 32.9102 34.1146 32.8288 34.2773 32.666C34.4401 32.5033 34.5215 32.3079 34.5215 32.0801C34.5215 31.8522 34.4401 31.665 34.2773 31.5186C34.1146 31.3721 33.9193 31.2988 33.6914 31.2988Z" fill="#187723"/>
</g>
</svg>
