<svg width="26" height="27" viewBox="0 0 26 27" fill="none" xmlns="http://www.w3.org/2000/svg">
<g id="Button" clip-path="url(#clip0_23_45250)">
<path id="Vector" d="M24.7051 24.2695L18.5352 17.8203C19.3307 16.8723 19.9401 15.8229 20.3633 14.6718C20.7865 13.5208 20.998 12.3189 20.998 11.0663C20.998 9.62754 20.7188 8.27338 20.1602 7.00385C19.6016 5.71739 18.8483 4.6002 17.9004 3.65228C16.9525 2.70437 15.8438 1.95957 14.5742 1.41791C13.3047 0.859314 11.9421 0.580017 10.4863 0.580017C9.04753 0.580017 7.6849 0.859314 6.39844 1.41791C5.12891 1.95957 4.02018 2.70437 3.07227 3.65228C2.12435 4.6002 1.37109 5.71739 0.8125 7.00385C0.270833 8.27338 0 9.62754 0 11.0663C0 12.5221 0.270833 13.8847 0.8125 15.1542C1.37109 16.4238 2.12435 17.5367 3.07227 18.4931C4.02018 19.4495 5.12891 20.1985 6.39844 20.7402C7.6849 21.2988 9.04753 21.5781 10.4863 21.5781C11.5697 21.5781 12.6234 21.4173 13.6475 21.0956C14.6716 20.774 15.6237 20.3001 16.5039 19.6738L22.75 26.1484C22.8685 26.2838 23.0124 26.3896 23.1816 26.4658C23.3509 26.5419 23.5286 26.58 23.7148 26.58C23.901 26.58 24.0745 26.5462 24.2354 26.4785C24.3962 26.4107 24.5443 26.3176 24.6797 26.1992C24.9505 25.9283 25.0902 25.6067 25.0986 25.2343C25.1071 24.8619 24.9759 24.5403 24.7051 24.2695ZM10.4863 3.3222C11.5527 3.3222 12.5599 3.52533 13.5078 3.93158C14.4557 4.33783 15.2809 4.89219 15.9834 5.59467C16.6859 6.29714 17.2402 7.12234 17.6465 8.07025C18.0527 9.00124 18.2559 9.99994 18.2559 11.0663C18.2559 12.1497 18.0527 13.1568 17.6465 14.0878C17.2402 15.0357 16.6859 15.8609 15.9834 16.5634C15.2809 17.2659 14.4557 17.8203 13.5078 18.2265C12.5599 18.6328 11.5527 18.8359 10.4863 18.8359C9.41992 18.8359 8.41276 18.6328 7.46484 18.2265C6.53385 17.8203 5.71712 17.2659 5.01465 16.5634C4.31217 15.8609 3.75781 15.0357 3.35156 14.0878C2.94531 13.1568 2.74219 12.1497 2.74219 11.0663C2.74219 9.99994 2.94531 9.00124 3.35156 8.07025C3.75781 7.12234 4.31217 6.29714 5.01465 5.59467C5.71712 4.89219 6.53385 4.33783 7.46484 3.93158C8.41276 3.52533 9.41992 3.3222 10.4863 3.3222Z" fill="white"/>
</g>
<defs>
<clipPath id="clip0_23_45250">
<rect width="26" height="26" fill="white" transform="matrix(1 0 0 -1 0 26.58)"/>
</clipPath>
</defs>
</svg>
