<svg width="14" height="15" viewBox="0 0 14 15" fill="none" xmlns="http://www.w3.org/2000/svg">
<g id="Icon" clip-path="url(#clip0_23_44729)">
<path id="Vector" d="M10.3802 8.89788C10.3802 8.61886 10.3258 8.36356 10.2169 8.13198C10.1081 7.90039 9.9728 7.70927 9.81097 7.5586C9.64913 7.40793 9.44545 7.27121 9.19992 7.14844C8.95438 7.02567 8.72419 6.93081 8.50935 6.86384C8.2945 6.79688 8.05036 6.7327 7.77693 6.67132L6.90639 6.47043C6.73898 6.43136 6.61621 6.40207 6.53809 6.38254C6.45996 6.363 6.3623 6.33092 6.24512 6.28627C6.12793 6.24163 6.04422 6.19699 5.994 6.15235C5.94378 6.1077 5.89774 6.04911 5.85589 5.97656C5.81403 5.90402 5.79311 5.82032 5.79311 5.72545C5.79311 5.29576 6.19489 5.08092 6.99847 5.08092C7.23842 5.08092 7.45326 5.1144 7.643 5.18136C7.83273 5.24833 7.9834 5.32785 8.09501 5.41992C8.20661 5.512 8.31264 5.60547 8.41309 5.70034C8.51353 5.7952 8.62514 5.87612 8.74791 5.94308C8.87068 6.01005 9.0046 6.04353 9.14969 6.04353C9.41197 6.04353 9.62263 5.95424 9.78167 5.77567C9.94071 5.5971 10.0202 5.38226 10.0202 5.13114C10.0202 4.82422 9.86398 4.5466 9.55148 4.29827C9.23898 4.04995 8.84277 3.86161 8.36286 3.73326C7.88295 3.60491 7.37514 3.54074 6.83943 3.54074C6.45996 3.54074 6.09166 3.58399 5.73451 3.67048C5.37737 3.75698 5.04395 3.88812 4.73424 4.0639C4.42453 4.23968 4.1762 4.48242 3.98926 4.79213C3.80232 5.10184 3.70884 5.46038 3.70884 5.86775C3.70884 6.20815 3.76186 6.5053 3.86788 6.75921C3.97391 7.01312 4.13016 7.22377 4.33663 7.39119C4.54311 7.5586 4.76632 7.69392 5.00628 7.79716C5.24623 7.90039 5.53362 7.99107 5.86844 8.0692L7.09054 8.37054C7.59277 8.49331 7.90527 8.59375 8.02804 8.67188C8.20661 8.78348 8.2959 8.9509 8.2959 9.17411C8.2959 9.39174 8.18429 9.57171 7.96108 9.71401C7.73786 9.85631 7.44489 9.92746 7.08217 9.92746C6.79757 9.92746 6.54227 9.88281 6.31627 9.79353C6.09026 9.70424 5.9089 9.59682 5.77218 9.47126C5.63546 9.34571 5.50851 9.22015 5.39132 9.09459C5.27414 8.96903 5.14579 8.86161 5.00628 8.77232C4.86677 8.68304 4.7161 8.6384 4.55427 8.6384C4.27525 8.6384 4.06459 8.7221 3.92229 8.88951C3.77999 9.05692 3.70884 9.26619 3.70884 9.5173C3.70884 10.0307 4.04925 10.4701 4.73005 10.8357C5.41085 11.2012 6.2228 11.3839 7.16588 11.3839C7.57324 11.3839 7.96387 11.3323 8.33775 11.2291C8.71163 11.1258 9.05343 10.9766 9.36314 10.7813C9.67285 10.5859 9.91978 10.3251 10.1039 9.99861C10.2881 9.67216 10.3802 9.30525 10.3802 8.89788ZM13.4187 10.7143C13.4187 11.6016 13.1048 12.3591 12.477 12.9869C11.8492 13.6147 11.0917 13.9286 10.2044 13.9286C9.47893 13.9286 8.82603 13.7054 8.24568 13.2589C7.81599 13.3482 7.39746 13.3929 6.99009 13.3929C6.1921 13.3929 5.42899 13.238 4.70075 12.9283C3.97252 12.6186 3.34473 12.2001 2.81738 11.6727C2.29004 11.1454 1.87151 10.5176 1.5618 9.78934C1.25209 9.06111 1.09724 8.29799 1.09724 7.5C1.09724 7.09264 1.14188 6.67411 1.23117 6.24442C0.784738 5.66407 0.561523 5.01116 0.561523 4.28572C0.561523 3.39844 0.875419 2.64091 1.50321 2.01312C2.131 1.38533 2.88853 1.07143 3.77581 1.07143C4.50126 1.07143 5.15416 1.29465 5.73451 1.74107C6.1642 1.65179 6.58273 1.60715 6.99009 1.60715C7.78809 1.60715 8.5512 1.762 9.27944 2.07171C10.0077 2.38142 10.6355 2.79995 11.1628 3.32729C11.6902 3.85463 12.1087 4.48242 12.4184 5.21066C12.7281 5.9389 12.883 6.70201 12.883 7.5C12.883 7.90737 12.8383 8.3259 12.749 8.75558C13.1955 9.33594 13.4187 9.98884 13.4187 10.7143Z" fill="#828282"/>
</g>
<defs>
<clipPath id="clip0_23_44729">
<rect width="12.86" height="15" fill="white" transform="matrix(1 0 0 -1 0.560059 15)"/>
</clipPath>
</defs>
</svg>
