<svg width="50" height="50" viewBox="0 0 50 50" fill="none" xmlns="http://www.w3.org/2000/svg">
<g id="Icon" clip-path="url(#clip0_23_44767)">
<path id="Vector" d="M41.6504 17.9199C41.6504 17.334 41.8538 16.8376 42.2607 16.4307C42.6676 16.0238 43.1641 15.8203 43.75 15.8203C44.7917 15.8203 45.6787 15.4541 46.4111 14.7217C47.1436 13.9893 47.5098 13.1022 47.5098 12.0605C47.5098 11.0514 47.1436 10.1807 46.4111 9.44824C45.6787 8.71582 44.7917 8.34961 43.75 8.34961H27.832L19.7754 0.244141C19.6126 0.0813789 19.4092 0 19.165 0C18.9209 0 18.7174 0.0813789 18.5547 0.244141L0.244141 18.5547C0.179036 18.6523 0.12207 18.75 0.0732422 18.8477C0.0244141 18.9453 0 19.0592 0 19.1895V49.1699C0 49.3978 0.0813802 49.5931 0.244141 49.7559C0.406901 49.9186 0.602214 50 0.830078 50H37.5C37.7279 50 37.9232 49.9186 38.0859 49.7559C38.2487 49.5931 38.3301 49.3978 38.3301 49.1699V19.1895C38.3301 19.0592 38.3057 18.9453 38.2568 18.8477C38.208 18.75 38.151 18.6523 38.0859 18.5547L29.4922 10.0098H43.75C44.3359 10.0098 44.8324 10.2132 45.2393 10.6201C45.6462 11.027 45.8496 11.5072 45.8496 12.0605C45.8496 12.6465 45.6462 13.1429 45.2393 13.5498C44.8324 13.9567 44.3359 14.1602 43.75 14.1602C42.7083 14.1602 41.8213 14.5264 41.0889 15.2588C40.3564 15.9912 39.9902 16.8783 39.9902 17.9199C39.9902 18.9616 40.3564 19.8486 41.0889 20.5811C41.8213 21.3135 42.7083 21.6797 43.75 21.6797H50V20.0195H43.75C43.1641 20.0195 42.6676 19.8161 42.2607 19.4092C41.8538 19.0023 41.6504 18.5059 41.6504 17.9199ZM36.6699 19.5312V48.3398H1.66016V19.5312L19.1895 2.00195L25.4883 8.34961H22.3633C22.2005 7.63346 21.818 7.03125 21.2158 6.54297C20.6136 6.05469 19.9382 5.81055 19.1895 5.81055C18.2454 5.81055 17.4479 6.14421 16.7969 6.81152C16.1458 7.47884 15.8203 8.26823 15.8203 9.17969C15.8203 10.0911 16.1458 10.8724 16.7969 11.5234C17.4479 12.1745 18.2454 12.5 19.1895 12.5C19.9382 12.5 20.6136 12.264 21.2158 11.792C21.818 11.32 22.2005 10.7259 22.3633 10.0098H27.1484L36.6699 19.5312ZM20.6055 10.0098C20.4427 10.2376 20.2393 10.4329 19.9951 10.5957C19.751 10.7585 19.4824 10.8398 19.1895 10.8398C18.7012 10.8398 18.2943 10.6771 17.9688 10.3516C17.6432 10.026 17.4805 9.63542 17.4805 9.17969C17.4805 8.72396 17.6432 8.33333 17.9688 8.00781C18.2943 7.68229 18.7012 7.51953 19.1895 7.51953C19.4824 7.51953 19.751 7.59277 19.9951 7.73926C20.2393 7.88574 20.4427 8.08919 20.6055 8.34961H19.1895V10.0098H20.6055ZM21.9727 17.8223L19.6777 16.0156C19.515 15.8854 19.3441 15.8203 19.165 15.8203C18.986 15.8203 18.8151 15.8854 18.6523 16.0156L16.3574 17.8223L13.4277 17.3828C13.265 17.3828 13.0941 17.4235 12.915 17.5049C12.736 17.5863 12.6139 17.7246 12.5488 17.9199L11.4746 20.6055L8.74023 21.7285C8.57747 21.7936 8.44727 21.9076 8.34961 22.0703C8.25195 22.2331 8.2194 22.4121 8.25195 22.6074L8.64258 25.4883L6.83594 27.832C6.73828 27.9622 6.68945 28.125 6.68945 28.3203C6.68945 28.5156 6.73828 28.6947 6.83594 28.8574L8.64258 31.1523L8.25195 34.0332C8.2194 34.2285 8.25195 34.4076 8.34961 34.5703C8.44727 34.7331 8.57747 34.8633 8.74023 34.9609L11.4746 36.0352L12.5488 38.7695C12.6139 38.9323 12.736 39.0625 12.915 39.1602C13.0941 39.2578 13.265 39.2904 13.4277 39.2578L16.3574 38.8672L18.6523 40.6738C18.7174 40.7064 18.7988 40.7389 18.8965 40.7715C18.9941 40.804 19.0918 40.8203 19.1895 40.8203C19.2546 40.8203 19.3359 40.804 19.4336 40.7715C19.5312 40.7389 19.6126 40.7064 19.6777 40.6738L21.9727 38.8672L24.9023 39.2578C25.0651 39.2904 25.236 39.2578 25.415 39.1602C25.5941 39.0625 25.7161 38.9323 25.7812 38.7695L26.8555 36.0352L29.5898 34.9609C29.7526 34.8633 29.8828 34.7331 29.9805 34.5703C30.0781 34.4076 30.1107 34.2285 30.0781 34.0332L29.6875 31.1523L31.4941 28.8574C31.6243 28.6947 31.6895 28.5156 31.6895 28.3203C31.6895 28.125 31.6243 27.9622 31.4941 27.832L29.6875 25.4883L30.0781 22.6074C30.1107 22.4121 30.0781 22.2331 29.9805 22.0703C29.8828 21.9076 29.7526 21.7936 29.5898 21.7285L26.8555 20.6055L25.7812 17.9199C25.7161 17.7246 25.5941 17.5863 25.415 17.5049C25.236 17.4235 25.0651 17.3828 24.9023 17.3828L21.9727 17.8223ZM25.9277 22.0215L28.3691 23.0469L27.9785 25.6348C27.9785 25.7324 27.9948 25.8382 28.0273 25.9521C28.0599 26.0661 28.1087 26.1719 28.1738 26.2695L29.7852 28.3203L28.1738 30.4199C28.1087 30.5176 28.0599 30.6152 28.0273 30.7129C27.9948 30.8105 27.9785 30.9245 27.9785 31.0547L28.3691 33.6426L25.9277 34.6191C25.8301 34.6842 25.7406 34.7493 25.6592 34.8145C25.5778 34.8796 25.5208 34.9772 25.4883 35.1074L24.4629 37.5488L21.875 37.1582C21.7448 37.1582 21.6309 37.1745 21.5332 37.207C21.4355 37.2396 21.3379 37.2884 21.2402 37.3535L19.1895 38.9648L17.0898 37.3535C17.0247 37.2884 16.9434 37.2396 16.8457 37.207C16.748 37.1745 16.6667 37.1582 16.6016 37.1582C16.569 37.1582 16.5446 37.1582 16.5283 37.1582C16.512 37.1582 16.4876 37.1582 16.4551 37.1582L13.8672 37.5488L12.8906 35.1074C12.8255 34.9772 12.7523 34.8796 12.6709 34.8145C12.5895 34.7493 12.5 34.6842 12.4023 34.6191L9.96094 33.6426L10.3516 31.0547C10.3516 30.9245 10.3353 30.8105 10.3027 30.7129C10.2702 30.6152 10.2214 30.5176 10.1562 30.4199L8.54492 28.3203L10.1562 26.2695C10.2214 26.1719 10.2702 26.0661 10.3027 25.9521C10.3353 25.8382 10.3516 25.7324 10.3516 25.6348L9.96094 23.0469L12.4023 22.0215C12.5 21.9889 12.5895 21.932 12.6709 21.8506C12.7523 21.7692 12.8255 21.6797 12.8906 21.582L13.8672 19.1406L16.4551 19.4824C16.5853 19.515 16.6992 19.515 16.7969 19.4824C16.8945 19.4499 16.9922 19.401 17.0898 19.3359L19.1895 17.7246L21.2402 19.3359C21.3379 19.401 21.4355 19.4499 21.5332 19.4824C21.6309 19.515 21.7448 19.515 21.875 19.4824L24.4629 19.1406L25.4883 21.582C25.5208 21.6797 25.5778 21.7692 25.6592 21.8506C25.7406 21.932 25.8301 21.9889 25.9277 22.0215ZM3.32031 43.3105H4.98047V46.6797H3.32031V43.3105ZM6.68945 43.3105H8.34961V46.6797H6.68945V43.3105ZM10.0098 43.3105H11.6699V46.6797H10.0098V43.3105ZM13.3301 43.3105H14.9902V46.6797H13.3301V43.3105ZM16.6504 43.3105H18.3105V46.6797H16.6504V43.3105ZM20.0195 43.3105H21.6797V46.6797H20.0195V43.3105ZM23.3398 43.3105H25V46.6797H23.3398V43.3105ZM26.6602 43.3105H28.3203V46.6797H26.6602V43.3105ZM29.9805 43.3105H31.6895V46.6797H29.9805V43.3105ZM33.3496 43.3105H35.0098V46.6797H33.3496V43.3105ZM13.5742 32.7637L23.584 22.7539L24.7559 23.9258L14.7461 33.9355L13.5742 32.7637ZM15.8203 25H17.4805V26.6602H15.8203V25ZM20.0195 30.8105H21.6797V32.5195H20.0195V30.8105Z" fill="#187723"/>
</g>
<defs>
<clipPath id="clip0_23_44767">
<rect width="50" height="50" fill="white" transform="matrix(1 0 0 -1 0 50)"/>
</clipPath>
</defs>
</svg>
