<svg width="14" height="15" viewBox="0 0 14 15" fill="none" xmlns="http://www.w3.org/2000/svg">
<g id="Icon" clip-path="url(#clip0_23_44726)">
<path id="Vector" d="M13.2276 3.41518C12.8537 3.96205 12.4017 4.42801 11.8716 4.81306C11.8772 4.89118 11.88 5.00837 11.88 5.16462C11.88 5.89006 11.7739 6.61412 11.5619 7.33677C11.3498 8.05943 11.0276 8.75279 10.5951 9.41685C10.1626 10.0809 9.64781 10.6682 9.05071 11.1788C8.45361 11.6894 7.73375 12.0968 6.89111 12.4009C6.04848 12.7051 5.14725 12.8571 4.18743 12.8571C2.67515 12.8571 1.29122 12.4526 0.0356445 11.6434C0.230957 11.6657 0.448591 11.6769 0.688546 11.6769C1.94413 11.6769 3.06299 11.2918 4.04513 10.5218C3.45919 10.5106 2.93464 10.3306 2.47147 9.98186C2.0083 9.63309 1.69022 9.18805 1.51723 8.64676C1.70138 8.67466 1.87158 8.68861 2.02783 8.68861C2.26779 8.68861 2.50495 8.65792 2.73933 8.59654C2.11433 8.46819 1.59675 8.15708 1.18659 7.66322C0.776437 7.16936 0.571359 6.59598 0.571359 5.94308V5.9096C0.950823 6.12165 1.35819 6.23605 1.79346 6.25279C1.42515 6.00725 1.13218 5.68638 0.914551 5.29018C0.696917 4.89397 0.5881 4.46428 0.5881 4.00111C0.5881 3.51004 0.710868 3.05524 0.956403 2.63672C1.63163 3.46819 2.45333 4.13365 3.42153 4.63309C4.38972 5.13253 5.42627 5.41015 6.53118 5.46596C6.48654 5.2539 6.46422 5.04743 6.46422 4.84654C6.46422 4.09877 6.72789 3.46121 7.25523 2.93387C7.78258 2.40653 8.42013 2.14285 9.1679 2.14285C9.94915 2.14285 10.6076 2.42745 11.1433 2.99665C11.7516 2.87946 12.3236 2.66183 12.8593 2.34375C12.6528 2.98549 12.2566 3.48214 11.6707 3.8337C12.1897 3.7779 12.7086 3.63839 13.2276 3.41518Z" fill="#828282"/>
</g>
<defs>
<clipPath id="clip0_23_44726">
<rect width="13.94" height="15" fill="white" transform="matrix(1 0 0 -1 0.0297852 15)"/>
</clipPath>
</defs>
</svg>
